PathFileType	4	(X/Y/Z)	OpenSim_Sub09_EMGBaseline_Accel.trc
DataRate	CameraRate	NumFrames	NumMarkers	Units	OrigDataRate	OrigDataStartFrame	OrigNumFrames
100	100	20	8	m	100	1826	7301
Frame#	Time	torso_imu_offset_imu	pelvis_imu_offset_imu	tibia_r_imu_offset_imu	femur_r_imu_offset_imu	tibia_l_imu_offset_imu	femur_l_imu_offset_imu	toes_r_imu_offset_imu	toes_l_imu_offset_imu
				X1	Y1	Z1	X2	Y2	Z2	X3	Y3	Z3	X4	Y4	Z4	X5	Y5	Z5	X6	Y6	Z6	X7	Y7	Z7	X8		Y8	Z8	

1826	18.25000000	8.91070900	-0.46838400	6.28426900	9.29106200	1.89174400	1.04826700	9.96383300	2.04498000	-0.23673400	9.66297200	-0.17035700	-0.47248800	10.25319100	-1.17316400	0.35089000	8.30656200	6.45012000	1.93267200	5.03531200	-1.41367900	9.27018300	10.46896900	1.53257600	5.05890500
1827	18.26000000	9.08399400	-0.41874200	6.32979100	9.52376900	2.13470900	0.88284800	10.51701700	2.49763600	0.28341100	10.23115700	-0.34610000	-0.48280900	8.45573200	-1.84293800	0.56924600	7.61136800	6.40381300	1.70532500	5.08483700	-1.67575900	9.07379800	7.64353100	13.08957000	8.87429800
1828	18.27000000	9.35239500	-0.36732000	6.40504900	9.75741800	2.47347300	1.10712100	11.40539200	2.65545200	1.23600300	10.80524200	-0.52174700	-0.61232900	7.46719600	-2.12671300	1.16645800	7.02822800	5.94384800	1.39823500	4.91427000	-1.06672500	9.55192500	12.69463900	2.86336300	-1.55643100
1829	18.28000000	9.91414300	-0.33846800	6.63744800	9.91971100	2.59457300	1.24894300	11.79154300	2.65005500	1.11631600	11.03107600	-0.77743500	-0.52262100	8.44288700	-1.20154200	0.59251800	6.94136700	5.11445500	0.80496600	5.05338800	-0.87724700	9.57069100	-3.08914100	0.17843400	4.41822800
1830	18.29000000	10.17897600	-0.30382500	6.82454500	10.16983500	2.44390700	1.48289800	11.46736200	2.53460300	0.82627600	10.92488600	-1.61329300	-0.34636100	9.77450900	-0.37660200	0.59386400	7.36769900	4.42626600	0.74962900	5.10174800	-0.84927000	9.72908300	4.68168500	3.48058000	10.07577100
1831	18.30000000	10.41548900	-0.21556400	6.94853100	10.49057000	2.11928000	1.87355700	11.35201500	2.21915900	1.21982700	10.86655200	-1.95206900	-0.27569600	10.83786100	-0.05986100	1.04602100	8.44254700	4.21751500	0.85293900	5.08538500	-0.95507200	9.92473300	3.09680200	3.05381600	15.80886300
1832	18.31000000	10.82275100	-0.13435000	7.09627100	11.06936100	1.46098700	2.15669000	11.64901100	1.72651600	1.29106700	11.04363700	-2.64575100	-0.18599700	11.67049600	1.97045100	2.77848300	9.99456600	3.86694700	1.02228600	5.04574900	-1.26632500	9.94254900	4.56690000	2.73920700	15.53518700
1833	18.32000000	11.19710100	-0.13172200	7.31915600	11.64188500	0.68713400	2.44161200	11.92046900	1.62018300	1.22489800	10.99547500	-2.77148900	-0.06026300	12.71914600	4.03460100	6.12570300	11.93727200	3.55222900	1.44020000	4.89313800	-1.48022300	9.99431500	9.05306000	-1.13988100	14.41572800
1834	18.33000000	11.35589600	-0.07180300	7.53203200	12.20542300	-0.18600700	3.01602300	11.99268800	1.75885400	1.48827400	10.96619900	-2.78361300	-0.05365600	14.34703800	4.32602100	7.60836600	13.69472100	3.27045500	1.90063100	5.29173200	-1.32144500	9.87764500	12.07249500	-5.35567400	14.73316000
1835	18.34000000	11.58235800	0.02252000	7.69830400	12.76820700	-1.06947700	3.61265900	11.96659400	1.73446700	1.63413300	10.74775400	-2.72194000	0.15341800	16.18416600	3.40091300	7.06085100	14.90532100	2.44851200	1.82170100	4.85023700	-2.03780400	10.02880000	10.55927900	-3.18789100	14.79767300
1836	18.35000000	11.82211500	0.09461000	7.78080400	13.17311000	-1.86637500	3.91151600	12.04350900	1.28667800	2.39395600	10.84950800	-2.43431400	0.37013800	16.13121300	2.43785700	5.95617300	15.35010100	1.88433100	1.02980600	4.56456400	-2.70684000	10.26738700	8.60933300	0.08488500	13.46998900
1837	18.36000000	11.73916200	0.22189500	7.76134000	13.12435800	-2.28397900	3.89227500	12.45726300	0.61894900	3.15107200	11.10464900	-1.86296900	0.59891800	13.45299400	1.41746700	4.67762800	14.91978800	2.06073900	0.11417600	4.61967000	-3.14160800	10.14133200	8.04005400	3.24686600	11.49453100
1838	18.37000000	11.13493300	0.39212500	7.60120700	12.42068500	-2.09746000	3.86489000	13.11135800	0.27932500	3.79734100	11.34776500	-1.28761800	1.16513300	10.57316000	0.05961900	3.93185200	13.17293500	2.65521400	0.18983600	4.57473600	-3.33363400	9.91726100	13.42019200	8.13368600	14.10215200
1839	18.38000000	10.44255000	0.58377500	7.28370700	11.37787900	-1.32591600	4.30251300	13.45833800	0.63986500	4.00536400	11.47911300	-1.00183800	1.32440400	9.30136000	-1.12511000	1.56466100	10.55207700	2.80918000	0.31273700	4.08754400	-3.05034600	10.34542400	14.86623600	-0.35008600	14.70273900
1840	18.39000000	10.17235600	0.70062400	6.95420700	10.66688900	-0.27833700	4.54493300	13.80370000	1.62482200	3.39346000	11.53072400	-1.08545900	1.43313200	9.78029900	-3.32691800	-0.38652500	9.20242800	2.05499800	-0.68430200	4.67708900	-1.79480400	10.47112400	3.63066600	0.82614300	10.41213600
1841	18.40000000	9.95722400	0.85152100	6.65070100	10.06443300	0.58722900	4.46592700	14.21206500	2.39967100	2.69731600	11.25149100	-0.73268800	1.66745500	9.43665300	-4.79279300	-3.20447400	8.27869300	1.18802500	-2.35122200	6.10171000	-2.36016700	10.72086600	6.95088200	5.07968300	11.73027900
1842	18.41000000	9.15919300	1.09018200	6.30439400	9.50584400	0.96630300	4.25665000	14.50456200	2.57638400	1.61707700	10.97990600	0.17381200	1.90819000	8.16806300	-3.91003500	-3.84127600	7.67823600	1.19542400	-2.56766700	8.07060200	-3.19679100	10.62190100	7.18023300	3.01532600	10.62031000
1843	18.42000000	8.56239100	1.24435900	5.90335100	8.98960000	1.14119500	4.32477600	14.19127800	1.74659800	-0.26138300	10.68320700	1.09586000	1.83926000	7.17493300	-3.53894200	-4.43785300	7.66796700	1.75174800	-1.16389000	11.68368100	-2.99954100	10.51282800	6.72192000	2.99333800	11.47166100
1844	18.43000000	8.47778100	1.26320700	5.60856600	8.56707900	1.17719000	4.46350900	13.00874200	0.15745000	-1.99989700	10.47219700	1.96897000	1.54243000	7.00474300	-4.97873000	-6.10311500	7.87255600	1.29090500	-1.26977900	14.03367500	-6.11478600	11.17724000	5.79473600	3.53879900	11.02820900
1845	18.44000000	8.58693700	1.32127400	5.41230100	8.34619900	1.11887400	4.37471100	11.27554800	-0.86916600	-1.98789600	10.37089100	2.42907300	1.78471600	7.91299700	-7.46524300	-7.08239500	8.23993000	0.38539200	-2.30075100	13.30714200	-9.53322100	10.24398200	5.87058500	3.37816300	10.75744900
